<svg width="13" height="15" viewBox="0 0 13 15" fill="none" xmlns="http://www.w3.org/2000/svg">
<path d="M12.2916 6.5625C12.2916 10.5997 8.11975 13.4775 6.96163 14.1987C6.87337 14.2546 6.77107 14.2843 6.66663 14.2843C6.56218 14.2843 6.45988 14.2546 6.37163 14.1987C5.21381 13.4775 1.04163 10.5997 1.04163 6.5625C1.04163 3.45594 3.56006 0.9375 6.66663 0.9375C9.77319 0.9375 12.2916 3.45594 12.2916 6.5625Z" stroke="#2C5CDE" stroke-width="1.25" stroke-linecap="round" stroke-linejoin="round"/>
<path d="M9.16663 6.5625C9.16663 7.22554 8.90323 7.86143 8.43439 8.33027C7.96555 8.79911 7.32967 9.0625 6.66663 9.0625C6.00358 9.0625 5.3677 8.79911 4.89886 8.33027C4.43002 7.86143 4.16663 7.22554 4.16663 6.5625C4.16663 5.89946 4.43002 5.26357 4.89886 4.79473C5.3677 4.32589 6.00358 4.0625 6.66663 4.0625C7.32967 4.0625 7.96555 4.32589 8.43439 4.79473C8.90323 5.26357 9.16663 5.89946 9.16663 6.5625Z" stroke="#2C5CDE" stroke-width="1.25" stroke-linecap="round" stroke-linejoin="round"/>
</svg>
