<svg width="16" height="15" viewBox="0 0 16 15" fill="none" xmlns="http://www.w3.org/2000/svg">
<path d="M1.66651 11.2541C1.73001 11.7493 1.95854 12.2086 2.31521 12.558C2.67187 12.9073 3.13587 13.1263 3.63228 13.1795C5.04291 13.3281 6.50344 13.4831 8.00112 13.4831C9.49773 13.4831 10.9593 13.327 12.37 13.1795C12.8665 13.1266 13.3307 12.9078 13.6874 12.5584C14.0442 12.209 14.2726 11.7494 14.3357 11.2541C14.4864 10.0398 14.635 8.78518 14.635 7.49979C14.635 6.21546 14.4864 4.95979 14.3357 3.74552C14.2724 3.25012 14.044 2.79053 13.6873 2.44097C13.3306 2.09141 12.8665 1.87229 12.37 1.81902C10.9593 1.67255 9.49773 1.51758 8.00112 1.51758C6.5045 1.51758 5.04291 1.67361 3.63228 1.82115C3.13573 1.874 2.67154 2.09284 2.3148 2.44226C1.95806 2.79168 1.72965 3.25123 1.66651 3.74658C1.51579 4.95979 1.36719 6.21546 1.36719 7.49979C1.36719 8.78412 1.51579 10.0398 1.66651 11.2541Z" stroke="#2C5CDE" stroke-width="1.14" stroke-linecap="round" stroke-linejoin="round"/>
<path d="M1.69531 3.4707L6.68615 7.40648C7.06058 7.70159 7.52345 7.86206 8.0002 7.86206C8.47694 7.86206 8.93981 7.70159 9.31425 7.40648L14.3051 3.4707" stroke="#2C5CDE" stroke-width="1.14" stroke-linecap="round" stroke-linejoin="round"/>
</svg>
