<svg width="13" height="13" viewBox="0 0 13 13" fill="none" xmlns="http://www.w3.org/2000/svg">
<path d="M11.5833 12.5C10.2944 12.5 8.98048 12.1889 7.64159 11.5667C6.30269 10.9444 5.06102 10.0611 3.91659 8.91667C2.77215 7.77223 1.88882 6.53057 1.26659 5.19167C0.644362 3.85277 0.333252 2.5389 0.333252 1.25C0.333252 1.03567 0.404695 0.85711 0.547585 0.714333C0.690362 0.571443 0.868919 0.5 1.08325 0.5H3.41659C3.57215 0.5 3.70549 0.555557 3.81659 0.666667C3.92769 0.777777 4.00549 0.916667 4.04992 1.08333L4.49875 3.17733C4.52175 3.3369 4.51935 3.48057 4.49159 3.60833C4.46382 3.7361 4.40419 3.84573 4.31275 3.93717L2.64992 5.61667C2.93882 6.10557 3.24435 6.5611 3.56659 6.98333C3.88882 7.40557 4.24435 7.80557 4.63325 8.18333C5.04435 8.60557 5.47768 8.99167 5.93325 9.34167C6.38882 9.69167 6.86659 10 7.36659 10.2667L8.94992 8.63333C9.06102 8.5111 9.18965 8.42777 9.33575 8.38333C9.48185 8.3389 9.62549 8.32777 9.76659 8.35L11.7499 8.78333C11.9166 8.82777 12.0555 8.9169 12.1666 9.05067C12.2777 9.18457 12.3333 9.33433 12.3333 9.5V11.75C12.3333 11.9643 12.2618 12.1429 12.1189 12.2857C11.9762 12.4286 11.7976 12.5 11.5833 12.5ZM2.14992 4.7L3.49992 3.33333L3.11659 1.5H1.33325C1.35548 1.96667 1.43048 2.45833 1.55825 2.975C1.68602 3.49167 1.88325 4.06667 2.14992 4.7ZM8.29992 10.75C8.75548 10.9611 9.24992 11.1333 9.78325 11.2667C10.3166 11.4 10.8333 11.4778 11.3333 11.5V9.71667L9.61659 9.36667L8.29992 10.75Z" fill="#2C5CDE"/>
</svg>
